<svg width="76" height="32" viewBox="0 0 76 32" fill="none" xmlns="http://www.w3.org/2000/svg">
<g id="logo-gradient-white-jira">
<g id="Jira">
<path d="M38.9836 5.39278H41.809V19.7499C41.809 23.5356 40.128 26.1785 36.2297 26.1785C34.7633 26.1785 33.6189 25.9285 32.832 25.6428V22.8928C33.6904 23.2499 34.7276 23.4285 35.7647 23.4285C38.161 23.4285 38.9836 21.9999 38.9836 19.9285V5.39278Z" fill="white"/>
<path d="M46.9948 4.28564C48.1035 4.28564 48.8903 4.96422 48.8903 6.1785C48.8903 7.35707 48.1035 8.07136 46.9948 8.07136C45.8861 8.07136 45.0993 7.39279 45.0993 6.1785C45.0993 4.99993 45.8861 4.28564 46.9948 4.28564ZM45.6 10.3214H48.3181V26.0356H45.6V10.3214Z" fill="white"/>
<path d="M55.0419 26.0356H52.3954V10.3214H55.0419V13.0714C55.9718 11.2142 57.5455 9.89278 60.6212 10.0714V12.7142C57.1521 12.3571 55.0419 13.3928 55.0419 16.7499V26.0356Z" fill="white"/>
<path d="M73.3177 23.2142C72.3163 25.2856 70.4208 26.3571 67.9888 26.3571C63.8043 26.3571 61.6942 22.8214 61.6942 18.1785C61.6942 13.7499 63.9116 9.99993 68.3106 9.99993C70.5996 9.99993 72.3878 11.0356 73.3177 13.0714V10.3214H76.0358V26.0356H73.3177V23.2142ZM68.7041 23.8571C71.1361 23.8571 73.2819 22.3214 73.2819 18.8214V17.5714C73.2819 14.0714 71.3149 12.5356 68.9902 12.5356C65.9502 12.5356 64.3765 14.5356 64.3765 18.1785C64.4123 21.9642 65.9144 23.8571 68.7041 23.8571Z" fill="white"/>
</g>
<g id="Icon">
<path id="Vector" d="M24.9638 2H12.5892C12.5892 5.07143 15.0928 7.57143 18.1685 7.57143H20.4575V9.75C20.4575 12.8214 22.961 15.3214 26.0368 15.3214V3.07143C26.0368 2.46429 25.5718 2 24.9638 2Z" fill="white"/>
<path id="Vector_2" d="M18.6691 8.32141H6.29456C6.29456 11.3928 8.79809 13.8928 11.8739 13.8928H14.1628V16.0714C14.1628 19.1428 16.6663 21.6428 19.7421 21.6428V9.39284C19.7421 8.82141 19.2771 8.32141 18.6691 8.32141Z" fill="url(#paint0_linear)"/>
<path id="Vector_3" d="M12.3746 14.6786H0C0 17.75 2.50353 20.25 5.57929 20.25H7.86824V22.4286C7.86824 25.5 10.3718 28 13.4475 28V15.75C13.4475 15.1429 12.9468 14.6786 12.3746 14.6786Z" fill="url(#paint1_linear)"/>
</g>
</g>
<defs>
<linearGradient id="paint0_linear" x1="19.479" y1="8.35238" x2="14.2254" y2="13.7777" gradientUnits="userSpaceOnUse">
<stop offset="0.176" stop-color="white" stop-opacity="0.4"/>
<stop offset="1" stop-color="white"/>
</linearGradient>
<linearGradient id="paint1_linear" x1="13.5282" y1="14.7199" x2="7.45341" y2="20.6389" gradientUnits="userSpaceOnUse">
<stop offset="0.176" stop-color="white" stop-opacity="0.4"/>
<stop offset="1" stop-color="white"/>
</linearGradient>
</defs>
</svg>
